<svg xmlns="http://www.w3.org/2000/svg" xmlns:xlink="http://www.w3.org/1999/xlink" version="1.1" x="0px" y="0px" viewBox="0 0 100 125" enable-background="new 0 0 100 100" xml:space="preserve"><g><path d="M50,24c-4.411,0-8,3.589-8,8c0,1.104,0.896,2,2,2s2-0.896,2-2c0-2.206,1.794-4,4-4c1.104,0,2-0.896,2-2S51.104,24,50,24z"/><path d="M66,48h-2V32c0-7.72-6.28-14-14-14s-14,6.28-14,14v16h-2c-1.104,0-2,0.896-2,2v6c0,1.104,0.896,2,2,2h7v35   c0,1.104,0.896,2,2,2s2-0.896,2-2V58h10v23c0,1.104,0.896,2,2,2s2-0.896,2-2V58h7c1.104,0,2-0.896,2-2v-6   C68,48.896,67.104,48,66,48z M40,32c0-5.514,4.486-10,10-10c5.514,0,10,4.486,10,10v16H40V32z M64,54H36v-2h2h24h2V54z"/><path d="M50,15c1.104,0,2-0.896,2-2V7c0-1.104-0.896-2-2-2s-2,0.896-2,2v6C48,14.104,48.896,15,50,15z"/><path d="M63.081,20.418c0.512,0,1.023-0.195,1.414-0.586l4.243-4.243c0.781-0.781,0.781-2.047,0-2.828s-2.047-0.781-2.828,0   l-4.243,4.243c-0.781,0.781-0.781,2.047,0,2.828C62.058,20.223,62.569,20.418,63.081,20.418z"/><path d="M35.504,19.833c0.39,0.391,0.902,0.586,1.414,0.586s1.023-0.195,1.414-0.586c0.781-0.781,0.781-2.047,0-2.828l-4.243-4.243   c-0.78-0.781-2.047-0.781-2.828,0c-0.781,0.781-0.781,2.047,0,2.828L35.504,19.833z"/><path d="M74.5,29.5h-6c-1.104,0-2,0.896-2,2s0.896,2,2,2h6c1.104,0,2-0.896,2-2S75.604,29.5,74.5,29.5z"/><path d="M33.5,31.5c0-1.104-0.896-2-2-2h-6c-1.104,0-2,0.896-2,2s0.896,2,2,2h6C32.604,33.5,33.5,32.604,33.5,31.5z"/></g><text x="0" y="115" fill="#000000" font-size="5px" font-weight="bold" font-family="'Helvetica Neue', Helvetica, Arial-Unicode, Arial, Sans-serif">Created by Dmitry Mirolyubov</text><text x="0" y="120" fill="#000000" font-size="5px" font-weight="bold" font-family="'Helvetica Neue', Helvetica, Arial-Unicode, Arial, Sans-serif">from the Noun Project</text></svg>